<svg xmlns="http://www.w3.org/2000/svg" xmlns:xlink="http://www.w3.org/1999/xlink" width="500" zoomAndPan="magnify" viewBox="0 0 375 374.999991" height="500" preserveAspectRatio="xMidYMid meet" version="1.0"><defs><clipPath id="84fb204ece"><path d="M 76.042969 245.625 L 115.652344 245.625 L 115.652344 302.921875 L 76.042969 302.921875 Z M 76.042969 245.625 " clip-rule="nonzero"/></clipPath><clipPath id="06b48e985b"><path d="M 115.652344 265.429688 L 115.652344 283.117188 C 115.652344 288.367188 113.566406 293.40625 109.851562 297.121094 C 106.136719 300.835938 101.101562 302.921875 95.847656 302.921875 C 90.59375 302.921875 85.558594 300.835938 81.84375 297.121094 C 78.128906 293.40625 76.042969 288.367188 76.042969 283.117188 L 76.042969 265.429688 C 76.042969 260.175781 78.128906 255.140625 81.84375 251.425781 C 85.558594 247.710938 90.59375 245.625 95.847656 245.625 C 101.101562 245.625 106.136719 247.710938 109.851562 251.425781 C 113.566406 255.140625 115.652344 260.175781 115.652344 265.429688 Z M 115.652344 265.429688 " clip-rule="nonzero"/></clipPath><clipPath id="b2312fa0cc"><path d="M 175.089844 245.625 L 214.703125 245.625 L 214.703125 302.921875 L 175.089844 302.921875 Z M 175.089844 245.625 " clip-rule="nonzero"/></clipPath><clipPath id="b30909671d"><path d="M 214.703125 265.429688 L 214.703125 283.117188 C 214.703125 288.367188 212.617188 293.40625 208.902344 297.121094 C 205.1875 300.835938 200.148438 302.921875 194.894531 302.921875 C 189.644531 302.921875 184.605469 300.835938 180.890625 297.121094 C 177.175781 293.40625 175.089844 288.367188 175.089844 283.117188 L 175.089844 265.429688 C 175.089844 260.175781 177.175781 255.140625 180.890625 251.425781 C 184.605469 247.710938 189.644531 245.625 194.894531 245.625 C 200.148438 245.625 205.1875 247.710938 208.902344 251.425781 C 212.617188 255.140625 214.703125 260.175781 214.703125 265.429688 Z M 214.703125 265.429688 " clip-rule="nonzero"/></clipPath><clipPath id="df4d669fd5"><path d="M 265.28125 244.957031 L 304.894531 244.957031 L 304.894531 302.257812 L 265.28125 302.257812 Z M 265.28125 244.957031 " clip-rule="nonzero"/></clipPath><clipPath id="da2356aca5"><path d="M 304.894531 264.765625 L 304.894531 282.449219 C 304.894531 287.703125 302.804688 292.742188 299.09375 296.457031 C 295.378906 300.167969 290.339844 302.257812 285.085938 302.257812 C 279.832031 302.257812 274.796875 300.167969 271.082031 296.457031 C 267.367188 292.742188 265.28125 287.703125 265.28125 282.449219 L 265.28125 264.765625 C 265.28125 259.511719 267.367188 254.472656 271.082031 250.757812 C 274.796875 247.046875 279.832031 244.957031 285.085938 244.957031 C 290.339844 244.957031 295.378906 247.046875 299.09375 250.757812 C 302.804688 254.472656 304.894531 259.511719 304.894531 264.765625 Z M 304.894531 264.765625 " clip-rule="nonzero"/></clipPath><clipPath id="7585a2d451"><path d="M 187 89 L 344 89 L 344 246 L 187 246 Z M 187 89 " clip-rule="nonzero"/></clipPath><clipPath id="60fe35c5d9"><path d="M 206.863281 80.902344 L 351.726562 225.769531 L 323.714844 253.777344 L 178.851562 108.914062 Z M 206.863281 80.902344 " clip-rule="nonzero"/></clipPath><clipPath id="d27566a35b"><path d="M 220.867188 94.910156 L 337.722656 211.761719 C 341.433594 215.476562 343.523438 220.515625 343.523438 225.769531 C 343.523438 231.019531 341.433594 236.058594 337.722656 239.773438 C 334.007812 243.488281 328.96875 245.574219 323.714844 245.574219 C 318.460938 245.574219 313.425781 243.488281 309.710938 239.773438 L 192.855469 122.917969 C 189.144531 119.207031 187.054688 114.167969 187.054688 108.914062 C 187.054688 103.660156 189.144531 98.625 192.855469 94.910156 C 196.570312 91.195312 201.609375 89.109375 206.863281 89.109375 C 212.117188 89.109375 217.152344 91.195312 220.867188 94.910156 Z M 220.867188 94.910156 " clip-rule="nonzero"/></clipPath><clipPath id="cf94da07dd"><path d="M 124 126 L 265 126 L 265 267 L 124 267 Z M 124 126 " clip-rule="nonzero"/></clipPath><clipPath id="d04dcba2fc"><path d="M 272.304688 146.476562 L 144.519531 274.261719 L 116.507812 246.253906 L 244.292969 118.464844 Z M 272.304688 146.476562 " clip-rule="nonzero"/></clipPath><clipPath id="ed8e4333b9"><path d="M 258.300781 160.480469 L 158.523438 260.257812 C 154.808594 263.972656 149.773438 266.058594 144.519531 266.058594 C 139.265625 266.058594 134.226562 263.972656 130.515625 260.257812 C 126.800781 256.542969 124.710938 251.503906 124.710938 246.253906 C 124.710938 241 126.800781 235.960938 130.515625 232.246094 L 230.289062 132.472656 C 234.003906 128.757812 239.042969 126.671875 244.292969 126.671875 C 249.546875 126.671875 254.585938 128.757812 258.300781 132.472656 C 262.015625 136.1875 264.101562 141.222656 264.101562 146.476562 C 264.101562 151.730469 262.015625 156.769531 258.300781 160.480469 Z M 258.300781 160.480469 " clip-rule="nonzero"/></clipPath><clipPath id="232d2e40f7"><path d="M 102 80 L 259 80 L 259 237 L 102 237 Z M 102 80 " clip-rule="nonzero"/></clipPath><clipPath id="eeb063ff24"><path d="M 122.203125 72.082031 L 267.070312 216.945312 L 239.058594 244.953125 L 94.195312 100.089844 Z M 122.203125 72.082031 " clip-rule="nonzero"/></clipPath><clipPath id="a3139ddbea"><path d="M 136.210938 86.085938 L 253.0625 202.9375 C 256.777344 206.652344 258.863281 211.691406 258.863281 216.945312 C 258.863281 222.195312 256.777344 227.234375 253.0625 230.949219 C 249.347656 234.664062 244.3125 236.75 239.058594 236.75 C 233.804688 236.75 228.765625 234.664062 225.050781 230.949219 L 108.199219 114.097656 C 104.484375 110.382812 102.398438 105.34375 102.398438 100.089844 C 102.398438 94.839844 104.484375 89.800781 108.199219 86.085938 C 111.914062 82.371094 116.953125 80.285156 122.203125 80.285156 C 127.457031 80.285156 132.496094 82.371094 136.210938 86.085938 Z M 136.210938 86.085938 " clip-rule="nonzero"/></clipPath><clipPath id="7077985de2"><path d="M 31 114 L 176 114 L 176 259 L 31 259 Z M 31 114 " clip-rule="nonzero"/></clipPath><clipPath id="ade5518b87"><path d="M 183.386719 134.304688 L 51.265625 266.425781 L 23.253906 238.414062 L 155.375 106.292969 Z M 183.386719 134.304688 " clip-rule="nonzero"/></clipPath><clipPath id="53e4605a87"><path d="M 169.382812 148.308594 L 65.269531 252.421875 C 61.558594 256.132812 56.519531 258.222656 51.265625 258.222656 C 46.011719 258.222656 40.976562 256.132812 37.261719 252.421875 C 33.546875 248.707031 31.460938 243.667969 31.460938 238.414062 C 31.460938 233.160156 33.546875 228.125 37.261719 224.410156 L 141.371094 120.300781 C 145.085938 116.585938 150.121094 114.5 155.375 114.5 C 160.628906 114.5 165.667969 116.585938 169.382812 120.300781 C 173.09375 124.015625 175.183594 129.050781 175.183594 134.304688 C 175.183594 139.558594 173.09375 144.597656 169.382812 148.308594 Z M 169.382812 148.308594 " clip-rule="nonzero"/></clipPath><clipPath id="a281e701da"><path d="M 136 118 L 184 118 L 184 166 L 136 166 Z M 136 118 " clip-rule="nonzero"/></clipPath><clipPath id="5d0d2e8b41"><path d="M 136.488281 149.609375 L 167.628906 118.472656 L 183.40625 134.25 L 152.265625 165.390625 Z M 136.488281 149.609375 " clip-rule="nonzero"/></clipPath><clipPath id="3204d99033"><path d="M 136.488281 149.609375 L 167.628906 118.472656 L 183.40625 134.25 L 152.265625 165.390625 Z M 136.488281 149.609375 " clip-rule="nonzero"/></clipPath><clipPath id="74f18ae386"><path d="M 93.402344 245.609375 L 115.71875 245.609375 L 115.71875 285.652344 L 93.402344 285.652344 Z M 93.402344 245.609375 " clip-rule="nonzero"/></clipPath><clipPath id="7c5a44975d"><path d="M 192.402344 245.609375 L 214.71875 245.609375 L 214.71875 285.652344 L 192.402344 285.652344 Z M 192.402344 245.609375 " clip-rule="nonzero"/></clipPath><clipPath id="272ab3eb03"><path d="M 282.59375 244.941406 L 304.910156 244.941406 L 304.910156 284.984375 L 282.59375 284.984375 Z M 282.59375 244.941406 " clip-rule="nonzero"/></clipPath><clipPath id="5af5e8f450"><path d="M 225 130 L 273 130 L 273 178 L 225 178 Z M 225 130 " clip-rule="nonzero"/></clipPath><clipPath id="a591c5df59"><path d="M 225.394531 161.996094 L 256.535156 130.859375 L 272.316406 146.636719 L 241.175781 177.777344 Z M 225.394531 161.996094 " clip-rule="nonzero"/></clipPath><clipPath id="f02ae18695"><path d="M 225.394531 161.996094 L 256.535156 130.859375 L 272.316406 146.636719 L 241.175781 177.777344 Z M 225.394531 161.996094 " clip-rule="nonzero"/></clipPath></defs><rect x="-37.5" width="450" fill="#ffffff" y="-37.499999" height="449.999989" fill-opacity="1"/><rect x="-37.5" width="450" fill="#ffffff" y="-37.499999" height="449.999989" fill-opacity="1"/><g clip-path="url(#84fb204ece)"><g clip-path="url(#06b48e985b)"><path fill="#3f8f8b" d="M 115.652344 245.625 L 115.652344 302.921875 L 76.042969 302.921875 L 76.042969 245.625 Z M 115.652344 245.625 " fill-opacity="1" fill-rule="nonzero"/></g></g><g clip-path="url(#b2312fa0cc)"><g clip-path="url(#b30909671d)"><path fill="#3f8f8b" d="M 214.703125 245.625 L 214.703125 302.921875 L 175.089844 302.921875 L 175.089844 245.625 Z M 214.703125 245.625 " fill-opacity="1" fill-rule="nonzero"/></g></g><g clip-path="url(#df4d669fd5)"><g clip-path="url(#da2356aca5)"><path fill="#3f8f8b" d="M 304.894531 244.957031 L 304.894531 302.257812 L 265.28125 302.257812 L 265.28125 244.957031 Z M 304.894531 244.957031 " fill-opacity="1" fill-rule="nonzero"/></g></g><g clip-path="url(#7585a2d451)"><g clip-path="url(#60fe35c5d9)"><g clip-path="url(#d27566a35b)"><path fill="#3f8f8b" d="M 206.863281 80.902344 L 351.726562 225.769531 L 323.714844 253.777344 L 178.851562 108.914062 Z M 206.863281 80.902344 " fill-opacity="1" fill-rule="nonzero"/></g></g></g><g clip-path="url(#cf94da07dd)"><g clip-path="url(#d04dcba2fc)"><g clip-path="url(#ed8e4333b9)"><path fill="#3f8f8b" d="M 272.304688 146.476562 L 144.519531 274.261719 L 116.507812 246.253906 L 244.292969 118.464844 Z M 272.304688 146.476562 " fill-opacity="1" fill-rule="nonzero"/></g></g></g><g clip-path="url(#232d2e40f7)"><g clip-path="url(#eeb063ff24)"><g clip-path="url(#a3139ddbea)"><path fill="#3f8f8b" d="M 122.203125 72.082031 L 267.070312 216.945312 L 239.058594 244.953125 L 94.195312 100.089844 Z M 122.203125 72.082031 " fill-opacity="1" fill-rule="nonzero"/></g></g></g><g clip-path="url(#7077985de2)"><g clip-path="url(#ade5518b87)"><g clip-path="url(#53e4605a87)"><path fill="#3f8f8b" d="M 183.386719 134.304688 L 51.265625 266.425781 L 23.253906 238.414062 L 155.375 106.292969 Z M 183.386719 134.304688 " fill-opacity="1" fill-rule="nonzero"/></g></g></g><g clip-path="url(#a281e701da)"><g clip-path="url(#5d0d2e8b41)"><g clip-path="url(#3204d99033)"><path fill="#3f8f8b" d="M 136.488281 149.609375 L 167.628906 118.472656 L 183.40625 134.25 L 152.265625 165.390625 Z M 136.488281 149.609375 " fill-opacity="1" fill-rule="nonzero"/></g></g></g><g clip-path="url(#74f18ae386)"><path fill="#3f8f8b" d="M 93.402344 285.652344 L 93.402344 245.609375 L 115.71875 245.609375 L 115.71875 285.652344 Z M 93.402344 285.652344 " fill-opacity="1" fill-rule="nonzero"/></g><g clip-path="url(#7c5a44975d)"><path fill="#3f8f8b" d="M 192.402344 285.652344 L 192.402344 245.609375 L 214.71875 245.609375 L 214.71875 285.652344 Z M 192.402344 285.652344 " fill-opacity="1" fill-rule="nonzero"/></g><g clip-path="url(#272ab3eb03)"><path fill="#3f8f8b" d="M 282.59375 284.984375 L 282.59375 244.941406 L 304.910156 244.941406 L 304.910156 284.984375 Z M 282.59375 284.984375 " fill-opacity="1" fill-rule="nonzero"/></g><g clip-path="url(#5af5e8f450)"><g clip-path="url(#a591c5df59)"><g clip-path="url(#f02ae18695)"><path fill="#3f8f8b" d="M 225.394531 161.996094 L 256.535156 130.859375 L 272.316406 146.636719 L 241.175781 177.777344 Z M 225.394531 161.996094 " fill-opacity="1" fill-rule="nonzero"/></g></g></g></svg>