<svg xmlns="http://www.w3.org/2000/svg" xmlns:xlink="http://www.w3.org/1999/xlink" width="412" zoomAndPan="magnify" viewBox="0 0 309 216.749995" height="289" preserveAspectRatio="xMidYMid meet" version="1.0"><defs><clipPath id="ff3df70eed"><path d="M 0.179688 0 L 308.820312 0 L 308.820312 216.5 L 0.179688 216.5 Z M 0.179688 0 " clip-rule="nonzero"/></clipPath><clipPath id="a1f5918556"><path d="M 49.964844 158.648438 L 87.117188 158.648438 L 87.117188 212.386719 L 49.964844 212.386719 Z M 49.964844 158.648438 " clip-rule="nonzero"/></clipPath><clipPath id="67402f9b1f"><path d="M 87.117188 177.222656 L 87.117188 193.808594 C 87.117188 198.738281 85.160156 203.460938 81.675781 206.945312 C 78.191406 210.429688 73.46875 212.386719 68.539062 212.386719 C 63.613281 212.386719 58.890625 210.429688 55.40625 206.945312 C 51.921875 203.460938 49.964844 198.738281 49.964844 193.808594 L 49.964844 177.222656 C 49.964844 172.296875 51.921875 167.570312 55.40625 164.085938 C 58.890625 160.605469 63.613281 158.648438 68.539062 158.648438 C 73.46875 158.648438 78.191406 160.605469 81.675781 164.085938 C 85.160156 167.570312 87.117188 172.296875 87.117188 177.222656 Z M 87.117188 177.222656 " clip-rule="nonzero"/></clipPath><clipPath id="9787fe3988"><path d="M 142.859375 158.648438 L 180.011719 158.648438 L 180.011719 212.386719 L 142.859375 212.386719 Z M 142.859375 158.648438 " clip-rule="nonzero"/></clipPath><clipPath id="ef0b4b229f"><path d="M 180.011719 177.222656 L 180.011719 193.808594 C 180.011719 198.738281 178.054688 203.460938 174.570312 206.945312 C 171.089844 210.429688 166.363281 212.386719 161.4375 212.386719 C 156.511719 212.386719 151.785156 210.429688 148.300781 206.945312 C 144.816406 203.460938 142.859375 198.738281 142.859375 193.808594 L 142.859375 177.222656 C 142.859375 172.296875 144.816406 167.570312 148.300781 164.085938 C 151.785156 160.605469 156.511719 158.648438 161.4375 158.648438 C 166.363281 158.648438 171.089844 160.605469 174.570312 164.085938 C 178.054688 167.570312 180.011719 172.296875 180.011719 177.222656 Z M 180.011719 177.222656 " clip-rule="nonzero"/></clipPath><clipPath id="82cf7be9a0"><path d="M 227.449219 158.023438 L 264.601562 158.023438 L 264.601562 211.761719 L 227.449219 211.761719 Z M 227.449219 158.023438 " clip-rule="nonzero"/></clipPath><clipPath id="ca7b2da1ea"><path d="M 264.601562 176.597656 L 264.601562 193.1875 C 264.601562 198.113281 262.644531 202.835938 259.160156 206.320312 C 255.675781 209.804688 250.953125 211.761719 246.027344 211.761719 C 241.097656 211.761719 236.375 209.804688 232.890625 206.320312 C 229.40625 202.835938 227.449219 198.113281 227.449219 193.1875 L 227.449219 176.597656 C 227.449219 171.671875 229.40625 166.945312 232.890625 163.464844 C 236.375 159.980469 241.097656 158.023438 246.027344 158.023438 C 250.953125 158.023438 255.675781 159.980469 259.160156 163.464844 C 262.644531 166.945312 264.601562 171.671875 264.601562 176.597656 Z M 264.601562 176.597656 " clip-rule="nonzero"/></clipPath><clipPath id="c4cfa31355"><path d="M 154 11 L 301 11 L 301 159 L 154 159 Z M 154 11 " clip-rule="nonzero"/></clipPath><clipPath id="13c6059683"><path d="M 172.660156 4.15625 L 308.527344 140.023438 L 282.253906 166.292969 L 146.390625 30.429688 Z M 172.660156 4.15625 " clip-rule="nonzero"/></clipPath><clipPath id="063793d437"><path d="M 185.796875 17.292969 L 295.390625 126.886719 C 298.875 130.371094 300.832031 135.097656 300.832031 140.023438 C 300.832031 144.949219 298.875 149.675781 295.390625 153.160156 C 291.90625 156.644531 287.183594 158.601562 282.253906 158.601562 C 277.328125 158.601562 272.601562 156.644531 269.121094 153.160156 L 159.523438 43.5625 C 156.039062 40.082031 154.082031 35.355469 154.082031 30.429688 C 154.082031 25.5 156.039062 20.777344 159.523438 17.292969 C 163.007812 13.808594 167.734375 11.851562 172.660156 11.851562 C 177.585938 11.851562 182.3125 13.808594 185.796875 17.292969 Z M 185.796875 17.292969 " clip-rule="nonzero"/></clipPath><clipPath id="ba703befae"><path d="M 95 47 L 227 47 L 227 178 L 95 178 Z M 95 47 " clip-rule="nonzero"/></clipPath><clipPath id="5350fbe66d"><path d="M 234.039062 65.65625 L 114.1875 185.507812 L 87.917969 159.234375 L 207.765625 39.386719 Z M 234.039062 65.65625 " clip-rule="nonzero"/></clipPath><clipPath id="259f35fed0"><path d="M 220.902344 78.792969 L 127.324219 172.371094 C 123.839844 175.855469 119.117188 177.8125 114.1875 177.8125 C 109.261719 177.8125 104.535156 175.855469 101.054688 172.371094 C 97.570312 168.886719 95.613281 164.164062 95.613281 159.234375 C 95.613281 154.308594 97.570312 149.585938 101.054688 146.101562 L 194.632812 52.523438 C 198.113281 49.039062 202.839844 47.082031 207.765625 47.082031 C 212.695312 47.082031 217.417969 49.039062 220.902344 52.523438 C 224.386719 56.007812 226.34375 60.730469 226.34375 65.65625 C 226.34375 70.585938 224.386719 75.308594 220.902344 78.792969 Z M 220.902344 78.792969 " clip-rule="nonzero"/></clipPath><clipPath id="a9b6348756"><path d="M 74 3 L 222 3 L 222 151 L 74 151 Z M 74 3 " clip-rule="nonzero"/></clipPath><clipPath id="34d7d6d1b4"><path d="M 93.261719 -4.117188 L 229.125 131.75 L 202.855469 158.019531 L 66.988281 22.152344 Z M 93.261719 -4.117188 " clip-rule="nonzero"/></clipPath><clipPath id="bee922b143"><path d="M 106.394531 9.015625 L 215.992188 118.613281 C 219.476562 122.097656 221.433594 126.820312 221.433594 131.75 C 221.433594 136.675781 219.476562 141.398438 215.992188 144.882812 C 212.507812 148.367188 207.78125 150.324219 202.855469 150.324219 C 197.929688 150.324219 193.203125 148.367188 189.71875 144.882812 L 80.125 35.289062 C 76.640625 31.804688 74.683594 27.078125 74.683594 22.152344 C 74.683594 17.226562 76.640625 12.5 80.125 9.015625 C 83.609375 5.535156 88.332031 3.578125 93.261719 3.578125 C 98.1875 3.578125 102.910156 5.535156 106.394531 9.015625 Z M 106.394531 9.015625 " clip-rule="nonzero"/></clipPath><clipPath id="eeede909ad"><path d="M 8 35 L 143 35 L 143 171 L 8 171 Z M 8 35 " clip-rule="nonzero"/></clipPath><clipPath id="6b70d6ddcd"><path d="M 150.640625 54.242188 L 26.726562 178.15625 L 0.457031 151.886719 L 124.371094 27.972656 Z M 150.640625 54.242188 " clip-rule="nonzero"/></clipPath><clipPath id="8a5abe25fa"><path d="M 137.507812 67.378906 L 39.863281 165.019531 C 36.378906 168.503906 31.65625 170.460938 26.726562 170.460938 C 21.800781 170.460938 17.074219 168.503906 13.59375 165.019531 C 10.109375 161.539062 8.152344 156.8125 8.152344 151.886719 C 8.152344 146.957031 10.109375 142.234375 13.59375 138.75 L 111.234375 41.105469 C 114.71875 37.621094 119.445312 35.664062 124.371094 35.664062 C 129.296875 35.664062 134.023438 37.621094 137.507812 41.105469 C 140.988281 44.589844 142.945312 49.316406 142.945312 54.242188 C 142.945312 59.167969 140.988281 63.894531 137.507812 67.378906 Z M 137.507812 67.378906 " clip-rule="nonzero"/></clipPath><clipPath id="5e23b541bb"><path d="M 106 39 L 151 39 L 151 84 L 106 84 Z M 106 39 " clip-rule="nonzero"/></clipPath><clipPath id="6cbb887f05"><path d="M 106.65625 68.597656 L 135.863281 39.390625 L 150.660156 54.191406 L 121.457031 83.394531 Z M 106.65625 68.597656 " clip-rule="nonzero"/></clipPath><clipPath id="0ff7db4cd7"><path d="M 106.65625 68.597656 L 135.863281 39.390625 L 150.660156 54.191406 L 121.457031 83.394531 Z M 106.65625 68.597656 " clip-rule="nonzero"/></clipPath><clipPath id="39055eb4e4"><path d="M 66.246094 158.632812 L 87.175781 158.632812 L 87.175781 196.1875 L 66.246094 196.1875 Z M 66.246094 158.632812 " clip-rule="nonzero"/></clipPath><clipPath id="f0b6ee3718"><path d="M 159.097656 158.632812 L 180.027344 158.632812 L 180.027344 196.1875 L 159.097656 196.1875 Z M 159.097656 158.632812 " clip-rule="nonzero"/></clipPath><clipPath id="dc7f26418c"><path d="M 243.6875 158.007812 L 264.617188 158.007812 L 264.617188 195.5625 L 243.6875 195.5625 Z M 243.6875 158.007812 " clip-rule="nonzero"/></clipPath><clipPath id="903cd8a3da"><path d="M 190 51 L 235 51 L 235 96 L 190 96 Z M 190 51 " clip-rule="nonzero"/></clipPath><clipPath id="33a808b45c"><path d="M 190.042969 80.214844 L 219.246094 51.007812 L 234.046875 65.808594 L 204.839844 95.011719 Z M 190.042969 80.214844 " clip-rule="nonzero"/></clipPath><clipPath id="807f6c60bb"><path d="M 190.042969 80.214844 L 219.246094 51.007812 L 234.046875 65.808594 L 204.839844 95.011719 Z M 190.042969 80.214844 " clip-rule="nonzero"/></clipPath></defs><g clip-path="url(#ff3df70eed)"><path fill="#ffffff" d="M 0.179688 0 L 308.820312 0 L 308.820312 216.5 L 0.179688 216.5 Z M 0.179688 0 " fill-opacity="1" fill-rule="nonzero"/><path fill="#ffffff" d="M 0.179688 0 L 308.820312 0 L 308.820312 216.5 L 0.179688 216.5 Z M 0.179688 0 " fill-opacity="1" fill-rule="nonzero"/></g><g clip-path="url(#a1f5918556)"><g clip-path="url(#67402f9b1f)"><path fill="#3f8f8b" d="M 87.117188 158.648438 L 87.117188 212.386719 L 49.964844 212.386719 L 49.964844 158.648438 Z M 87.117188 158.648438 " fill-opacity="1" fill-rule="nonzero"/></g></g><g clip-path="url(#9787fe3988)"><g clip-path="url(#ef0b4b229f)"><path fill="#3f8f8b" d="M 180.011719 158.648438 L 180.011719 212.386719 L 142.859375 212.386719 L 142.859375 158.648438 Z M 180.011719 158.648438 " fill-opacity="1" fill-rule="nonzero"/></g></g><g clip-path="url(#82cf7be9a0)"><g clip-path="url(#ca7b2da1ea)"><path fill="#3f8f8b" d="M 264.601562 158.023438 L 264.601562 211.761719 L 227.449219 211.761719 L 227.449219 158.023438 Z M 264.601562 158.023438 " fill-opacity="1" fill-rule="nonzero"/></g></g><g clip-path="url(#c4cfa31355)"><g clip-path="url(#13c6059683)"><g clip-path="url(#063793d437)"><path fill="#3f8f8b" d="M 172.660156 4.15625 L 308.527344 140.023438 L 282.253906 166.292969 L 146.390625 30.429688 Z M 172.660156 4.15625 " fill-opacity="1" fill-rule="nonzero"/></g></g></g><g clip-path="url(#ba703befae)"><g clip-path="url(#5350fbe66d)"><g clip-path="url(#259f35fed0)"><path fill="#3f8f8b" d="M 234.039062 65.65625 L 114.1875 185.507812 L 87.917969 159.234375 L 207.765625 39.386719 Z M 234.039062 65.65625 " fill-opacity="1" fill-rule="nonzero"/></g></g></g><g clip-path="url(#a9b6348756)"><g clip-path="url(#34d7d6d1b4)"><g clip-path="url(#bee922b143)"><path fill="#3f8f8b" d="M 93.261719 -4.117188 L 229.125 131.75 L 202.855469 158.019531 L 66.988281 22.152344 Z M 93.261719 -4.117188 " fill-opacity="1" fill-rule="nonzero"/></g></g></g><g clip-path="url(#eeede909ad)"><g clip-path="url(#6b70d6ddcd)"><g clip-path="url(#8a5abe25fa)"><path fill="#3f8f8b" d="M 150.640625 54.242188 L 26.726562 178.15625 L 0.457031 151.886719 L 124.371094 27.972656 Z M 150.640625 54.242188 " fill-opacity="1" fill-rule="nonzero"/></g></g></g><g clip-path="url(#5e23b541bb)"><g clip-path="url(#6cbb887f05)"><g clip-path="url(#0ff7db4cd7)"><path fill="#3f8f8b" d="M 106.65625 68.597656 L 135.863281 39.390625 L 150.660156 54.191406 L 121.457031 83.394531 Z M 106.65625 68.597656 " fill-opacity="1" fill-rule="nonzero"/></g></g></g><g clip-path="url(#39055eb4e4)"><path fill="#3f8f8b" d="M 66.246094 196.1875 L 66.246094 158.632812 L 87.175781 158.632812 L 87.175781 196.1875 Z M 66.246094 196.1875 " fill-opacity="1" fill-rule="nonzero"/></g><g clip-path="url(#f0b6ee3718)"><path fill="#3f8f8b" d="M 159.097656 196.1875 L 159.097656 158.632812 L 180.027344 158.632812 L 180.027344 196.1875 Z M 159.097656 196.1875 " fill-opacity="1" fill-rule="nonzero"/></g><g clip-path="url(#dc7f26418c)"><path fill="#3f8f8b" d="M 243.6875 195.5625 L 243.6875 158.007812 L 264.617188 158.007812 L 264.617188 195.5625 Z M 243.6875 195.5625 " fill-opacity="1" fill-rule="nonzero"/></g><g clip-path="url(#903cd8a3da)"><g clip-path="url(#33a808b45c)"><g clip-path="url(#807f6c60bb)"><path fill="#3f8f8b" d="M 190.042969 80.214844 L 219.246094 51.007812 L 234.046875 65.808594 L 204.839844 95.011719 Z M 190.042969 80.214844 " fill-opacity="1" fill-rule="nonzero"/></g></g></g></svg>